:SAMPLES-PER-SECOND 30
:FULLY-SPECIFIED
:DEGREES
354
root  35.0814519 36.50216531 -14.9612622 9.040631294 -0.1614414006 2.969853401
lowerback  -8.586580276 -0.04254372045 1.038540125
upperback  -3.767277718 -0.4717279971 -2.856719971
thorax  0.8778460026 -0.4300009906 -3.584769964
lowerneck  -15.91670036 -1.968479991 -1.249750018
upperneck  21.44910049 -2.953969717 4.735949993
head  9.497440338 -0.6878469586 1.511909962
lclavicle  0 -4.497500157e-015 -2.743230041e-014
lhumerus  -45.22589874 27.21610069 68.95939636
lradius  -0.347081542 -6.507048965e-006 28.91249847
lwrist  4.824992743e-007 -3.790274832e-007 -29.03240013
lhand  -4.405300586e-031 -36.72040176 -10.72439957
lfingers  90 7.125020027 -90
lthumb  94.74225044 -25.56571091 100.8814038
rclavicle  0 -4.497500157e-015 -2.743230041e-014
rhumerus  -44.59820175 -11.51279926 -76.31359863
rradius  -5.16745672e-007 2.214343908e-008 88.27069855
rwrist  -3.062178075e-005 0.01194404531 -171.8110046
rhand  -1.775242907e-031 5.986219883 -7.881830215
rfingers  -90 -7.125020027 -90
rthumb  -84.88329923 -8.341505645 -58.31643225
rfemur  -12.7172699 15.00855255 13.48672295
rtibia  -1.014906764 0.5578621626 21.48553658
rfoot  -0.7972621322 -19.61055756 -39.34691238
rtoes  4.099939364 19.59211694 -102.066185
lfemur  -10.55879974 -17.8528614 -18.29777718
ltibia  0.7983106971 0.4824119508 16.84975243
lfoot  0.4346064925 -27.56915855 35.13388443
ltoes  -8.506763157 -18.16811184 -115.6267749
355
root  35.08195652 36.50528315 -14.96135832 9.05115509 -0.2259535342 2.928648949
lowerback  -8.550370216 -0.08396448195 0.9314134121
upperback  -3.772368908 -0.5181210041 -2.810090065
thorax  0.8549979925 -0.4514650106 -3.479140043
lowerneck  -15.91149998 -1.933959961 -1.274950027
upperneck  21.44540024 -2.898629665 4.728819847
head  9.49339962 -0.666013062 1.520630002
lclavicle  0 -4.497500157e-015 -2.743230041e-014
lhumerus  -45.19350052 27.2052002 69.04519653
lradius  -0.348546803 -6.507048965e-006 28.90229797
lwrist  4.824992743e-007 -3.790274832e-007 -29.01029778
lhand  -4.405300586e-031 -36.72040176 -10.72439957
lfingers  90 7.125020027 -90
lthumb  94.74225044 -25.56571091 100.8814038
rclavicle  0 -4.497500157e-015 -2.743230041e-014
rhumerus  -44.71440125 -11.93020058 -76.22660065
rradius  -5.16745672e-007 2.214343908e-008 86.82520294
rwrist  -3.062178075e-005 0.01194404531 -171.3099976
rhand  -1.775242907e-031 5.986219883 -7.881830215
rfingers  -90 -7.125020027 -90
rthumb  -84.88329923 -8.341505645 -58.31643225
rfemur  -12.69649601 15.05444241 13.50884628
rtibia  -0.9835862517 0.576046586 21.39515305
rfoot  -0.7310767174 -19.55898094 -39.29642868
rtoes  4.099939364 19.59211694 -102.066185
lfemur  -10.63185978 -17.75466156 -18.22174835
ltibia  0.7343190908 0.5037042499 16.96221542
lfoot  0.4543703198 -27.66811752 35.12180328
ltoes  -8.506763157 -18.16811184 -115.6267749
356
root  35.07892278 36.50661078 -14.9616692 9.015561104 -0.3249433637 2.99105978
lowerback  -8.600020409 -0.08368374407 0.9603741169
upperback  -3.777139902 -0.5196920037 -2.752019882
thorax  0.877391994 -0.4514189959 -3.435909986
lowerneck  -15.89449978 -1.907600045 -1.278210044
upperneck  21.44729996 -2.857569933 4.71544981
head  9.485847473 -0.6490379572 1.521860003
lclavicle  0 -4.497500157e-015 -2.743230041e-014
lhumerus  -45.17649841 27.18099976 69.1352005
lradius  -0.350009799 -6.507048965e-006 28.91570091
lwrist  4.824992743e-007 -3.790274832e-007 -29.06089973
lhand  -4.405300586e-031 -36.72040176 -10.72439957
lfingers  90 7.125020027 -90
lthumb  94.74225044 -25.56571091 100.8814038
rclavicle  0 -4.497500157e-015 -2.743230041e-014
rhumerus  -44.85829926 -12.33039951 -76.03710175
rradius  -5.16745672e-007 2.214343908e-008 85.51270294
rwrist  -3.062178075e-005 0.01194404531 -170.8939972
rhand  -1.775242907e-031 5.986219883 -7.881830215
rfingers  -90 -7.125020027 -90
rthumb  -84.88329923 -8.341505645 -58.31643225
rfemur  -12.72809887 15.10184097 13.46605396
rtibia  -1.021343589 0.5585070848 21.50801086
rfoot  -0.755530417 -19.58349419 -39.23904419
rtoes  4.099939364 19.59211694 -102.066185
lfemur  -10.51200962 -17.73440933 -18.35349846
ltibia  0.8169825673 0.4516102672 16.83065033
lfoot  0.4435687661 -27.50908089 35.1598587
ltoes  -8.506763157 -18.16811184 -115.6267749
357
root  35.07685924 36.50356803 -14.9620747 8.985239983 -0.4208521545 3.01342082
lowerback  -8.632370949 -0.07270394266 0.9619374275
upperback  -3.780479908 -0.5053910017 -2.719779968
thorax  0.8930690289 -0.4437969923 -3.40237999
lowerneck  -15.87230015 -1.908190012 -1.322620034
upperneck  21.43260002 -2.852810144 4.741499901
head  9.480799675 -0.6483479738 1.538810134
lclavicle  0 -4.497500157e-015 -2.743230041e-014
lhumerus  -45.13539886 27.1868 69.20140076
lradius  -0.35147053 -6.507048965e-006 28.93379974
lwrist  4.824992743e-007 -3.790274832e-007 -29.01059914
lhand  -4.405300586e-031 -36.72040176 -10.72439957
lfingers  90 7.125020027 -90
lthumb  94.74225044 -25.56571091 100.8814038
rclavicle  0 -4.497500157e-015 -2.743230041e-014
rhumerus  -44.98830032 -12.83409977 -75.90419769
rradius  -5.16745672e-007 2.214343908e-008 84.07540131
rwrist  -3.062178075e-005 0.01194404531 -170.8679962
rhand  -1.775242907e-031 5.986219883 -7.881830215
rfingers  -90 -7.125020027 -90
rthumb  -84.88329923 -8.341505645 -58.31643225
rfemur  -12.7200346 15.10824203 13.4396143
rtibia  -1.027662754 0.5132639408 21.52875137
rfoot  -0.7639127374 -19.67304611 -39.19255447
rtoes  4.099939364 19.59211694 -102.066185
lfemur  -10.41467667 -17.67361641 -18.42113304
ltibia  0.8589403033 0.4301203191 16.73533821
lfoot  0.4216471016 -27.42847061 35.16762543
ltoes  -8.506763157 -18.16811184 -115.6267749
